<svg aria-hidden="true" style="position: absolute; width: 0; height: 0; overflow: hidden;" version="1.1" xmlns="http://www.w3.org/2000/svg" xmlns:xlink="http://www.w3.org/1999/xlink">
<defs>
<symbol id="icon-git" viewBox="0 0 28 32">
<path d="M27.472 14.753l-12.222-12.225c-0.326-0.326-0.777-0.528-1.275-0.528s-0.949 0.202-1.275 0.528l-2.541 2.539 3.22 3.22c1.691-0.571 3.293 1.048 2.712 2.73l3.104 3.104c2.139-0.738 3.824 1.938 2.217 3.543-1.656 1.656-4.388-0.179-3.5-2.334l-2.897-2.893v7.616c1.581 0.784 1.391 2.616 0.568 3.438-0.388 0.388-0.925 0.628-1.517 0.628s-1.129-0.24-1.517-0.628v0c-1.098-1.1-0.692-2.932 0.703-3.5v-7.688c-1.3-0.532-1.537-1.921-1.165-2.813l-3.174-3.178-8.383 8.384c-0.326 0.326-0.528 0.777-0.528 1.275s0.202 0.949 0.528 1.275l12.226 12.225c0.326 0.326 0.777 0.528 1.275 0.528s0.949-0.202 1.275-0.528l12.168-12.168c0.326-0.326 0.528-0.777 0.528-1.275s-0.202-0.949-0.528-1.275v0z"></path>
</symbol>
<symbol id="icon-star" viewBox="0 0 30 32">
<path d="M28.516 13.070c0 0.296-0.213 0.575-0.427 0.788l-5.959 5.812 1.412 8.208c0.016 0.115 0.016 0.213 0.016 0.328 0 0.427-0.197 0.821-0.673 0.821-0.23 0-0.46-0.082-0.657-0.197l-7.371-3.874-7.371 3.874c-0.213 0.115-0.427 0.197-0.657 0.197-0.476 0-0.689-0.394-0.689-0.821 0-0.115 0.016-0.213 0.033-0.328l1.412-8.208-5.976-5.812c-0.197-0.213-0.41-0.492-0.41-0.788 0-0.492 0.509-0.69 0.919-0.755l8.241-1.198 3.694-7.47c0.148-0.312 0.427-0.673 0.804-0.673s0.657 0.361 0.804 0.673l3.694 7.47 8.241 1.198c0.394 0.066 0.919 0.263 0.919 0.755z"></path>
</symbol>
<symbol id="icon-gears" viewBox="0 0 34 32">
<path d="M16 15.991c0-2.518-2.054-4.571-4.571-4.571s-4.571 2.054-4.571 4.571 2.054 4.571 4.571 4.571 4.571-2.054 4.571-4.571zM29.714 25.134c0-1.25-1.036-2.286-2.286-2.286s-2.286 1.036-2.286 2.286c0 1.268 1.036 2.286 2.286 2.286 1.268 0 2.286-1.036 2.286-2.286zM29.714 6.848c0-1.25-1.036-2.286-2.286-2.286s-2.286 1.036-2.286 2.286c0 1.268 1.036 2.286 2.286 2.286 1.268 0 2.286-1.036 2.286-2.286zM22.857 14.366v3.304c0 0.232-0.179 0.5-0.411 0.536l-2.768 0.429c-0.143 0.464-0.339 0.911-0.571 1.357 0.5 0.714 1.036 1.375 1.607 2.054 0.071 0.107 0.125 0.214 0.125 0.357 0 0.125-0.036 0.25-0.125 0.339-0.357 0.482-2.357 2.661-2.875 2.661-0.143 0-0.268-0.054-0.375-0.125l-2.054-1.607c-0.446 0.232-0.893 0.411-1.375 0.554-0.089 0.911-0.179 1.893-0.411 2.768-0.071 0.25-0.286 0.429-0.536 0.429h-3.321c-0.25 0-0.5-0.196-0.536-0.446l-0.411-2.732c-0.464-0.143-0.911-0.339-1.339-0.554l-2.107 1.589c-0.089 0.089-0.232 0.125-0.357 0.125-0.143 0-0.268-0.054-0.375-0.143-0.464-0.429-2.571-2.339-2.571-2.857 0-0.125 0.054-0.232 0.125-0.339 0.518-0.679 1.054-1.339 1.571-2.036-0.25-0.482-0.464-0.964-0.625-1.464l-2.714-0.429c-0.25-0.036-0.429-0.268-0.429-0.518v-3.304c0-0.232 0.179-0.5 0.411-0.536l2.768-0.429c0.143-0.464 0.339-0.911 0.571-1.357-0.5-0.714-1.036-1.375-1.607-2.054-0.071-0.107-0.125-0.232-0.125-0.357s0.036-0.25 0.125-0.357c0.357-0.482 2.357-2.643 2.875-2.643 0.143 0 0.268 0.054 0.375 0.125l2.054 1.607c0.446-0.232 0.893-0.411 1.375-0.571 0.089-0.893 0.179-1.875 0.411-2.75 0.071-0.25 0.286-0.429 0.536-0.429h3.321c0.25 0 0.5 0.196 0.536 0.446l0.411 2.732c0.464 0.143 0.911 0.339 1.339 0.554l2.107-1.589c0.107-0.089 0.232-0.125 0.357-0.125 0.143 0 0.268 0.054 0.375 0.143 0.464 0.429 2.571 2.357 2.571 2.857 0 0.125-0.054 0.232-0.125 0.339-0.518 0.696-1.054 1.339-1.554 2.036 0.232 0.482 0.446 0.964 0.607 1.464l2.714 0.411c0.25 0.054 0.429 0.286 0.429 0.536zM34.286 23.884v2.5c0 0.268-2.304 0.518-2.661 0.554-0.143 0.339-0.321 0.643-0.536 0.929 0.161 0.357 0.911 2.143 0.911 2.464 0 0.054-0.018 0.089-0.071 0.125-0.214 0.125-2.125 1.268-2.214 1.268-0.232 0-1.571-1.786-1.75-2.054-0.179 0.018-0.357 0.036-0.536 0.036s-0.357-0.018-0.536-0.036c-0.179 0.268-1.518 2.054-1.75 2.054-0.089 0-2-1.143-2.214-1.268-0.054-0.036-0.071-0.089-0.071-0.125 0-0.304 0.75-2.107 0.911-2.464-0.214-0.286-0.393-0.589-0.536-0.929-0.357-0.036-2.661-0.286-2.661-0.554v-2.5c0-0.268 2.304-0.518 2.661-0.554 0.143-0.321 0.321-0.643 0.536-0.929-0.161-0.357-0.911-2.161-0.911-2.464 0-0.036 0.018-0.089 0.071-0.125 0.214-0.107 2.125-1.25 2.214-1.25 0.232 0 1.571 1.768 1.75 2.036 0.179-0.018 0.357-0.036 0.536-0.036s0.357 0.018 0.536 0.036c0.5-0.696 1.036-1.393 1.643-2l0.107-0.036c0.089 0 2 1.125 2.214 1.25 0.054 0.036 0.071 0.089 0.071 0.125 0 0.321-0.75 2.107-0.911 2.464 0.214 0.286 0.393 0.607 0.536 0.929 0.357 0.036 2.661 0.286 2.661 0.554zM34.286 5.598v2.5c0 0.268-2.304 0.518-2.661 0.554-0.143 0.339-0.321 0.643-0.536 0.929 0.161 0.357 0.911 2.143 0.911 2.464 0 0.054-0.018 0.089-0.071 0.125-0.214 0.125-2.125 1.268-2.214 1.268-0.232 0-1.571-1.786-1.75-2.054-0.179 0.018-0.357 0.036-0.536 0.036s-0.357-0.018-0.536-0.036c-0.179 0.268-1.518 2.054-1.75 2.054-0.089 0-2-1.143-2.214-1.268-0.054-0.036-0.071-0.089-0.071-0.125 0-0.304 0.75-2.107 0.911-2.464-0.214-0.286-0.393-0.589-0.536-0.929-0.357-0.036-2.661-0.286-2.661-0.554v-2.5c0-0.268 2.304-0.518 2.661-0.554 0.143-0.321 0.321-0.643 0.536-0.929-0.161-0.357-0.911-2.161-0.911-2.464 0-0.036 0.018-0.089 0.071-0.125 0.214-0.107 2.125-1.25 2.214-1.25 0.232 0 1.571 1.768 1.75 2.036 0.179-0.018 0.357-0.036 0.536-0.036s0.357 0.018 0.536 0.036c0.5-0.696 1.036-1.393 1.643-2l0.107-0.036c0.089 0 2 1.125 2.214 1.25 0.054 0.036 0.071 0.089 0.071 0.125 0 0.321-0.75 2.107-0.911 2.464 0.214 0.286 0.393 0.607 0.536 0.929 0.357 0.036 2.661 0.286 2.661 0.554z"></path>
</symbol>
<symbol id="icon-message" viewBox="0 0 32 32">
<path d="M25.143 12.57c0 5.054-5.625 9.143-12.571 9.143-1.089 0-2.143-0.107-3.143-0.286-1.482 1.054-3.161 1.821-4.964 2.286-0.482 0.125-1 0.214-1.536 0.286h-0.054c-0.268 0-0.518-0.214-0.571-0.518v0c-0.071-0.339 0.161-0.554 0.357-0.786 0.696-0.786 1.482-1.482 2.089-2.964-2.893-1.679-4.75-4.268-4.75-7.161 0-5.054 5.625-9.143 12.571-9.143s12.571 4.089 12.571 9.143zM32 17.141c0 2.911-1.857 5.482-4.75 7.161 0.607 1.482 1.393 2.179 2.089 2.964 0.196 0.232 0.429 0.446 0.357 0.786v0c-0.071 0.321-0.339 0.554-0.625 0.518-0.536-0.071-1.054-0.161-1.536-0.286-1.804-0.464-3.482-1.232-4.964-2.286-1 0.179-2.054 0.286-3.143 0.286-3.232 0-6.196-0.893-8.429-2.357 0.518 0.036 1.054 0.071 1.571 0.071 3.839 0 7.464-1.107 10.232-3.107 2.982-2.179 4.625-5.125 4.625-8.321 0-0.929-0.143-1.839-0.411-2.714 3.018 1.661 4.982 4.304 4.982 7.286z"></path>
</symbol>
<symbol id="icon-dot" viewBox="0 0 27 32">
<path d="M18.286 16c0 2.518-2.054 4.571-4.571 4.571s-4.571-2.054-4.571-4.571 2.054-4.571 4.571-4.571 4.571 2.054 4.571 4.571zM13.714 6.286c-5.357 0-9.714 4.357-9.714 9.714s4.357 9.714 9.714 9.714 9.714-4.357 9.714-9.714-4.357-9.714-9.714-9.714zM27.429 16c0 7.571-6.143 13.714-13.714 13.714s-13.714-6.143-13.714-13.714 6.143-13.714 13.714-13.714v0c7.571 0 13.714 6.143 13.714 13.714z"></path>
</symbol>
<symbol id="icon-wrench" viewBox="0 0 30 32">
<path d="M6.65 25.572c0-0.641-0.531-1.172-1.172-1.172s-1.172 0.531-1.172 1.172 0.531 1.172 1.172 1.172 1.172-0.531 1.172-1.172zM18.448 17.878l-12.494 12.494c-0.421 0.421-1.026 0.678-1.649 0.678s-1.227-0.256-1.667-0.678l-1.942-1.979c-0.44-0.421-0.696-1.026-0.696-1.649s0.256-1.227 0.696-1.667l12.476-12.476c0.953 2.4 2.876 4.323 5.276 5.276zM30.063 9.909c0 0.605-0.22 1.356-0.421 1.942-1.154 3.261-4.287 5.514-7.749 5.514-4.525 0-8.207-3.682-8.207-8.207s3.682-8.207 8.207-8.207c1.337 0 3.078 0.403 4.195 1.154 0.183 0.128 0.293 0.293 0.293 0.513 0 0.202-0.128 0.403-0.293 0.513l-5.368 3.096v4.104l3.536 1.96c0.605-0.348 4.855-3.023 5.221-3.023s0.586 0.275 0.586 0.641z"></path>
</symbol>
<symbol id="icon-github" viewBox="0 0 27 32">
<path d="M13.719 2.623c7.571 0 13.714 6.143 13.714 13.714 0 6.054-3.929 11.196-9.375 13.018-0.696 0.125-0.946-0.304-0.946-0.661 0-0.446 0.018-1.929 0.018-3.768 0-1.286-0.429-2.107-0.929-2.536 3.054-0.339 6.268-1.5 6.268-6.768 0-1.5-0.536-2.714-1.411-3.679 0.143-0.357 0.607-1.75-0.143-3.643-1.143-0.357-3.768 1.411-3.768 1.411-1.089-0.304-2.268-0.464-3.429-0.464s-2.339 0.161-3.429 0.464c0 0-2.625-1.768-3.768-1.411-0.75 1.893-0.286 3.286-0.143 3.643-0.875 0.964-1.411 2.179-1.411 3.679 0 5.25 3.196 6.429 6.25 6.768-0.393 0.357-0.75 0.964-0.875 1.839-0.786 0.357-2.786 0.964-3.982-1.143-0.75-1.304-2.107-1.411-2.107-1.411-1.339-0.018-0.089 0.839-0.089 0.839 0.893 0.411 1.518 2 1.518 2 0.804 2.446 4.625 1.625 4.625 1.625 0 1.143 0.018 2.214 0.018 2.554 0 0.357-0.25 0.786-0.946 0.661-5.446-1.821-9.375-6.964-9.375-13.018 0-7.571 6.143-13.714 13.714-13.714zM5.201 22.319c0.036-0.071-0.018-0.161-0.125-0.214-0.107-0.036-0.196-0.018-0.232 0.036-0.036 0.071 0.018 0.161 0.125 0.214 0.089 0.054 0.196 0.036 0.232-0.036zM5.755 22.926c0.071-0.054 0.054-0.179-0.036-0.286-0.089-0.089-0.214-0.125-0.286-0.054-0.071 0.054-0.054 0.179 0.036 0.286 0.089 0.089 0.214 0.125 0.286 0.054zM6.29 23.73c0.089-0.071 0.089-0.214 0-0.339-0.071-0.125-0.214-0.179-0.304-0.107-0.089 0.054-0.089 0.196 0 0.321s0.232 0.179 0.304 0.125zM7.040 24.48c0.071-0.071 0.036-0.232-0.071-0.339-0.125-0.125-0.286-0.143-0.357-0.054-0.089 0.071-0.054 0.232 0.071 0.339 0.125 0.125 0.286 0.143 0.357 0.054zM8.058 24.926c0.036-0.107-0.071-0.232-0.232-0.286-0.143-0.036-0.304 0.018-0.339 0.125s0.071 0.232 0.232 0.268c0.143 0.054 0.304 0 0.339-0.107zM9.183 25.016c0-0.125-0.143-0.214-0.304-0.196-0.161 0-0.286 0.089-0.286 0.196 0 0.125 0.125 0.214 0.304 0.196 0.161 0 0.286-0.089 0.286-0.196zM10.219 24.837c-0.018-0.107-0.161-0.179-0.321-0.161-0.161 0.036-0.268 0.143-0.25 0.268 0.018 0.107 0.161 0.179 0.321 0.143s0.268-0.143 0.25-0.25z"></path>
</symbol>
<symbol id="icon-instagram" viewBox="0 0 27 32">
<path d="M18.29 16c0-2.518-2.054-4.571-4.571-4.571s-4.571 2.054-4.571 4.571 2.054 4.571 4.571 4.571 4.571-2.054 4.571-4.571zM20.754 16c0 3.893-3.143 7.036-7.036 7.036s-7.036-3.143-7.036-7.036 3.143-7.036 7.036-7.036 7.036 3.143 7.036 7.036zM22.683 8.679c0 0.911-0.732 1.643-1.643 1.643s-1.643-0.732-1.643-1.643 0.732-1.643 1.643-1.643 1.643 0.732 1.643 1.643zM13.719 4.75c-2 0-6.286-0.161-8.089 0.554-0.625 0.25-1.089 0.554-1.571 1.036s-0.786 0.946-1.036 1.571c-0.714 1.804-0.554 6.089-0.554 8.089s-0.161 6.286 0.554 8.089c0.25 0.625 0.554 1.089 1.036 1.571s0.946 0.786 1.571 1.036c1.804 0.714 6.089 0.554 8.089 0.554s6.286 0.161 8.089-0.554c0.625-0.25 1.089-0.554 1.571-1.036s0.786-0.946 1.036-1.571c0.714-1.804 0.554-6.089 0.554-8.089s0.161-6.286-0.554-8.089c-0.25-0.625-0.554-1.089-1.036-1.571s-0.946-0.786-1.571-1.036c-1.804-0.714-6.089-0.554-8.089-0.554zM27.433 16c0 1.893 0.018 3.768-0.089 5.661-0.107 2.196-0.607 4.143-2.214 5.75s-3.554 2.107-5.75 2.214c-1.893 0.107-3.768 0.089-5.661 0.089s-3.768 0.018-5.661-0.089c-2.196-0.107-4.143-0.607-5.75-2.214s-2.107-3.554-2.214-5.75c-0.107-1.893-0.089-3.768-0.089-5.661s-0.018-3.768 0.089-5.661c0.107-2.196 0.607-4.143 2.214-5.75s3.554-2.107 5.75-2.214c1.893-0.107 3.768-0.089 5.661-0.089s3.768-0.018 5.661 0.089c2.196 0.107 4.143 0.607 5.75 2.214s2.107 3.554 2.214 5.75c0.107 1.893 0.089 3.768 0.089 5.661z"></path>
</symbol>
<symbol id="icon-email" viewBox="0 0 32 32">
<path d="M29.303 2.454c0.321 0.23 0.474 0.597 0.413 0.98l-3.918 23.51c-0.046 0.291-0.23 0.536-0.49 0.689-0.138 0.077-0.306 0.122-0.474 0.122-0.122 0-0.245-0.031-0.367-0.077l-6.934-2.832-3.704 4.515c-0.184 0.23-0.459 0.352-0.75 0.352-0.107 0-0.23-0.015-0.337-0.061-0.383-0.138-0.643-0.505-0.643-0.918v-5.342l13.225-16.209-16.362 14.158-6.046-2.48c-0.352-0.138-0.582-0.459-0.612-0.842-0.015-0.367 0.168-0.719 0.49-0.903l25.469-14.694c0.153-0.092 0.321-0.138 0.49-0.138 0.199 0 0.398 0.061 0.551 0.168z"></path>
</symbol>
<symbol id="icon-twitter" viewBox="0 0 30 32">
<path d="M29.719 6.798c-0.83 1.207-1.867 2.282-3.055 3.149 0.019 0.264 0.019 0.528 0.019 0.792 0 8.052-6.129 17.33-17.33 17.33-3.451 0-6.657-0.999-9.353-2.734 0.49 0.057 0.962 0.075 1.471 0.075 2.847 0 5.469-0.962 7.562-2.602-2.678-0.057-4.922-1.81-5.695-4.224 0.377 0.057 0.754 0.094 1.15 0.094 0.547 0 1.094-0.075 1.603-0.207-2.791-0.566-4.884-3.017-4.884-5.978v-0.075c0.811 0.453 1.754 0.735 2.753 0.773-1.641-1.094-2.715-2.961-2.715-5.073 0-1.131 0.302-2.169 0.83-3.074 2.998 3.696 7.505 6.11 12.559 6.374-0.094-0.453-0.151-0.924-0.151-1.395 0-3.357 2.715-6.091 6.091-6.091 1.754 0 3.338 0.735 4.45 1.923 1.377-0.264 2.697-0.773 3.866-1.471-0.453 1.414-1.414 2.602-2.678 3.357 1.226-0.132 2.414-0.471 3.507-0.943z"></path>
</symbol>
<symbol id="icon-chevron-down" viewBox="0 0 32 32">
<path d="M31.628 11.185l-14.734 14.714c-0.496 0.496-1.291 0.496-1.787 0l-14.734-14.714c-0.496-0.496-0.496-1.311 0-1.807l3.296-3.276c0.496-0.496 1.291-0.496 1.787 0l10.544 10.544 10.544-10.544c0.496-0.496 1.291-0.496 1.787 0l3.296 3.276c0.496 0.496 0.496 1.311 0 1.807z"></path>
</symbol>
<symbol id="icon-link" viewBox="0 0 32 32">
<path d="M25.143 18.857v5.714c0 2.839-2.304 5.143-5.143 5.143h-14.857c-2.839 0-5.143-2.304-5.143-5.143v-14.857c0-2.839 2.304-5.143 5.143-5.143h12.571c0.321 0 0.571 0.25 0.571 0.571v1.143c0 0.321-0.25 0.571-0.571 0.571h-12.571c-1.571 0-2.857 1.286-2.857 2.857v14.857c0 1.571 1.286 2.857 2.857 2.857h14.857c1.571 0 2.857-1.286 2.857-2.857v-5.714c0-0.321 0.25-0.571 0.571-0.571h1.143c0.321 0 0.571 0.25 0.571 0.571zM32 3.429v9.143c0 0.625-0.518 1.143-1.143 1.143-0.304 0-0.589-0.125-0.804-0.339l-3.143-3.143-11.643 11.643c-0.107 0.107-0.268 0.179-0.411 0.179s-0.304-0.071-0.411-0.179l-2.036-2.036c-0.107-0.107-0.179-0.268-0.179-0.411s0.071-0.304 0.179-0.411l11.643-11.643-3.143-3.143c-0.214-0.214-0.339-0.5-0.339-0.804 0-0.625 0.518-1.143 1.143-1.143h9.143c0.625 0 1.143 0.518 1.143 1.143z"></path>
</symbol>
<symbol id="icon-linkedin" viewBox="0 0 27 32">
<path d="M6.237 11.411v17.696h-5.893v-17.696h5.893zM6.612 5.946c0.018 1.696-1.268 3.054-3.321 3.054v0h-0.036c-1.982 0-3.25-1.357-3.25-3.054 0-1.732 1.321-3.054 3.321-3.054 2.018 0 3.268 1.321 3.286 3.054zM27.433 18.964v10.143h-5.875v-9.464c0-2.375-0.857-4-2.982-4-1.625 0-2.589 1.089-3.018 2.143-0.143 0.393-0.196 0.911-0.196 1.446v9.875h-5.875c0.071-16.036 0-17.696 0-17.696h5.875v2.571h-0.036c0.768-1.214 2.161-2.982 5.339-2.982 3.875 0 6.768 2.536 6.768 7.964z"></path>
</symbol>
</defs>
</svg>
