<svg aria-hidden="true" style="position: absolute; width: 0; height: 0; overflow: hidden;" version="1.1" xmlns="http://www.w3.org/2000/svg" xmlns:xlink="http://www.w3.org/1999/xlink">
<defs>
<symbol id="icon-git" viewBox="0 0 32 32">
<path d="M31.396 14.575l-13.968-13.971c-0.373-0.373-0.888-0.603-1.458-0.603s-1.084 0.231-1.458 0.603l-2.904 2.902 3.68 3.68c1.933-0.653 3.763 1.198 3.099 3.12l3.547 3.547c2.445-0.843 4.37 2.214 2.534 4.049-1.892 1.892-5.015-0.205-4-2.667l-3.311-3.306v8.704c1.807 0.896 1.59 2.989 0.649 3.929-0.444 0.444-1.057 0.718-1.734 0.718s-1.29-0.274-1.734-0.718v0c-1.255-1.257-0.791-3.351 0.804-4v-8.786c-1.486-0.608-1.757-2.196-1.331-3.214l-3.628-3.632-9.58 9.581c-0.373 0.373-0.604 0.888-0.604 1.458s0.231 1.084 0.604 1.458l13.972 13.971c0.373 0.373 0.888 0.603 1.457 0.603s1.084-0.231 1.457-0.603l13.906-13.906c0.373-0.373 0.604-0.888 0.604-1.458s-0.231-1.084-0.604-1.458v0z"></path>
</symbol>
<symbol id="icon-star" viewBox="0 0 32 32">
<path d="M32 12.567c0 0.346-0.25 0.673-0.5 0.923l-6.981 6.808 1.654 9.615c0.019 0.135 0.019 0.25 0.019 0.385 0 0.5-0.231 0.962-0.788 0.962-0.269 0-0.538-0.096-0.769-0.231l-8.635-4.538-8.635 4.538c-0.25 0.135-0.5 0.231-0.769 0.231-0.558 0-0.808-0.462-0.808-0.962 0-0.135 0.019-0.25 0.038-0.385l1.654-9.615-7-6.808c-0.231-0.25-0.481-0.577-0.481-0.923 0-0.577 0.596-0.808 1.077-0.885l9.654-1.404 4.327-8.75c0.173-0.365 0.5-0.788 0.942-0.788s0.769 0.423 0.942 0.788l4.327 8.75 9.654 1.404c0.462 0.077 1.077 0.308 1.077 0.885z"></path>
</symbol>
<symbol id="icon-gears" viewBox="0 0 32 32">
<path d="M14.933 15.992c0-2.35-1.917-4.267-4.267-4.267s-4.267 1.917-4.267 4.267 1.917 4.267 4.267 4.267 4.267-1.917 4.267-4.267zM27.733 24.525c0-1.167-0.967-2.133-2.133-2.133s-2.133 0.967-2.133 2.133c0 1.183 0.967 2.133 2.133 2.133 1.183 0 2.133-0.967 2.133-2.133zM27.733 7.458c0-1.167-0.967-2.133-2.133-2.133s-2.133 0.967-2.133 2.133c0 1.183 0.967 2.133 2.133 2.133 1.183 0 2.133-0.967 2.133-2.133zM21.333 14.475v3.083c0 0.217-0.167 0.467-0.383 0.5l-2.583 0.4c-0.133 0.433-0.317 0.85-0.533 1.267 0.467 0.667 0.967 1.283 1.5 1.917 0.067 0.1 0.117 0.2 0.117 0.333 0 0.117-0.033 0.233-0.117 0.317-0.333 0.45-2.2 2.483-2.683 2.483-0.133 0-0.25-0.050-0.35-0.117l-1.917-1.5c-0.417 0.217-0.833 0.383-1.283 0.517-0.083 0.85-0.167 1.767-0.383 2.583-0.067 0.233-0.267 0.4-0.5 0.4h-3.1c-0.233 0-0.467-0.183-0.5-0.417l-0.383-2.55c-0.433-0.133-0.85-0.317-1.25-0.517l-1.967 1.483c-0.083 0.083-0.217 0.117-0.333 0.117-0.133 0-0.25-0.050-0.35-0.133-0.433-0.4-2.4-2.183-2.4-2.667 0-0.117 0.050-0.217 0.117-0.317 0.483-0.633 0.983-1.25 1.467-1.9-0.233-0.45-0.433-0.9-0.583-1.367l-2.533-0.4c-0.233-0.033-0.4-0.25-0.4-0.483v-3.083c0-0.217 0.167-0.467 0.383-0.5l2.583-0.4c0.133-0.433 0.317-0.85 0.533-1.267-0.467-0.667-0.967-1.283-1.5-1.917-0.067-0.1-0.117-0.217-0.117-0.333s0.033-0.233 0.117-0.333c0.333-0.45 2.2-2.467 2.683-2.467 0.133 0 0.25 0.050 0.35 0.117l1.917 1.5c0.417-0.217 0.833-0.383 1.283-0.533 0.083-0.833 0.167-1.75 0.383-2.567 0.067-0.233 0.267-0.4 0.5-0.4h3.1c0.233 0 0.467 0.183 0.5 0.417l0.383 2.55c0.433 0.133 0.85 0.317 1.25 0.517l1.967-1.483c0.1-0.083 0.217-0.117 0.333-0.117 0.133 0 0.25 0.050 0.35 0.133 0.433 0.4 2.4 2.2 2.4 2.667 0 0.117-0.050 0.217-0.117 0.317-0.483 0.65-0.983 1.25-1.45 1.9 0.217 0.45 0.417 0.9 0.567 1.367l2.533 0.383c0.233 0.050 0.4 0.267 0.4 0.5zM32 23.358v2.333c0 0.25-2.15 0.483-2.483 0.517-0.133 0.317-0.3 0.6-0.5 0.867 0.15 0.333 0.85 2 0.85 2.3 0 0.050-0.017 0.083-0.067 0.117-0.2 0.117-1.983 1.183-2.067 1.183-0.217 0-1.467-1.667-1.633-1.917-0.167 0.017-0.333 0.033-0.5 0.033s-0.333-0.017-0.5-0.033c-0.167 0.25-1.417 1.917-1.633 1.917-0.083 0-1.867-1.067-2.067-1.183-0.050-0.033-0.067-0.083-0.067-0.117 0-0.283 0.7-1.967 0.85-2.3-0.2-0.267-0.367-0.55-0.5-0.867-0.333-0.033-2.483-0.267-2.483-0.517v-2.333c0-0.25 2.15-0.483 2.483-0.517 0.133-0.3 0.3-0.6 0.5-0.867-0.15-0.333-0.85-2.017-0.85-2.3 0-0.033 0.017-0.083 0.067-0.117 0.2-0.1 1.983-1.167 2.067-1.167 0.217 0 1.467 1.65 1.633 1.9 0.167-0.017 0.333-0.033 0.5-0.033s0.333 0.017 0.5 0.033c0.467-0.65 0.967-1.3 1.533-1.867l0.1-0.033c0.083 0 1.867 1.050 2.067 1.167 0.050 0.033 0.067 0.083 0.067 0.117 0 0.3-0.7 1.967-0.85 2.3 0.2 0.267 0.367 0.567 0.5 0.867 0.333 0.033 2.483 0.267 2.483 0.517zM32 6.292v2.333c0 0.25-2.15 0.483-2.483 0.517-0.133 0.317-0.3 0.6-0.5 0.867 0.15 0.333 0.85 2 0.85 2.3 0 0.050-0.017 0.083-0.067 0.117-0.2 0.117-1.983 1.183-2.067 1.183-0.217 0-1.467-1.667-1.633-1.917-0.167 0.017-0.333 0.033-0.5 0.033s-0.333-0.017-0.5-0.033c-0.167 0.25-1.417 1.917-1.633 1.917-0.083 0-1.867-1.067-2.067-1.183-0.050-0.033-0.067-0.083-0.067-0.117 0-0.283 0.7-1.967 0.85-2.3-0.2-0.267-0.367-0.55-0.5-0.867-0.333-0.033-2.483-0.267-2.483-0.517v-2.333c0-0.25 2.15-0.483 2.483-0.517 0.133-0.3 0.3-0.6 0.5-0.867-0.15-0.333-0.85-2.017-0.85-2.3 0-0.033 0.017-0.083 0.067-0.117 0.2-0.1 1.983-1.167 2.067-1.167 0.217 0 1.467 1.65 1.633 1.9 0.167-0.017 0.333-0.033 0.5-0.033s0.333 0.017 0.5 0.033c0.467-0.65 0.967-1.3 1.533-1.867l0.1-0.033c0.083 0 1.867 1.050 2.067 1.167 0.050 0.033 0.067 0.083 0.067 0.117 0 0.3-0.7 1.967-0.85 2.3 0.2 0.267 0.367 0.567 0.5 0.867 0.333 0.033 2.483 0.267 2.483 0.517z"></path>
</symbol>
<symbol id="icon-message" viewBox="0 0 32 32">
<path d="M25.143 12.57c0 5.054-5.625 9.143-12.571 9.143-1.089 0-2.143-0.107-3.143-0.286-1.482 1.054-3.161 1.821-4.964 2.286-0.482 0.125-1 0.214-1.536 0.286h-0.054c-0.268 0-0.518-0.214-0.571-0.518v0c-0.071-0.339 0.161-0.554 0.357-0.786 0.696-0.786 1.482-1.482 2.089-2.964-2.893-1.679-4.75-4.268-4.75-7.161 0-5.054 5.625-9.143 12.571-9.143s12.571 4.089 12.571 9.143zM32 17.141c0 2.911-1.857 5.482-4.75 7.161 0.607 1.482 1.393 2.179 2.089 2.964 0.196 0.232 0.429 0.446 0.357 0.786v0c-0.071 0.321-0.339 0.554-0.625 0.518-0.536-0.071-1.054-0.161-1.536-0.286-1.804-0.464-3.482-1.232-4.964-2.286-1 0.179-2.054 0.286-3.143 0.286-3.232 0-6.196-0.893-8.429-2.357 0.518 0.036 1.054 0.071 1.571 0.071 3.839 0 7.464-1.107 10.232-3.107 2.982-2.179 4.625-5.125 4.625-8.321 0-0.929-0.143-1.839-0.411-2.714 3.018 1.661 4.982 4.304 4.982 7.286z"></path>
</symbol>
<symbol id="icon-dot" viewBox="0 0 32 32">
<path d="M21.333 16c0 2.938-2.396 5.333-5.333 5.333s-5.333-2.396-5.333-5.333 2.396-5.333 5.333-5.333 5.333 2.396 5.333 5.333zM16 4.667c-6.25 0-11.333 5.083-11.333 11.333s5.083 11.333 11.333 11.333 11.333-5.083 11.333-11.333-5.083-11.333-11.333-11.333zM32 16c0 8.833-7.167 16-16 16s-16-7.167-16-16 7.167-16 16-16v0c8.833 0 16 7.167 16 16z"></path>
</symbol>
<symbol id="icon-wrench" viewBox="0 0 32 32">
<path d="M7.089 26.177c0-0.682-0.565-1.246-1.246-1.246s-1.246 0.565-1.246 1.246 0.565 1.246 1.246 1.246 1.246-0.565 1.246-1.246zM19.632 17.996l-13.283 13.283c-0.448 0.448-1.091 0.721-1.753 0.721s-1.305-0.273-1.772-0.721l-2.064-2.103c-0.467-0.448-0.74-1.091-0.74-1.753s0.273-1.305 0.74-1.772l13.264-13.264c1.013 2.551 3.058 4.596 5.609 5.609zM31.98 9.524c0 0.643-0.234 1.441-0.448 2.064-1.227 3.467-4.558 5.862-8.239 5.862-4.811 0-8.725-3.915-8.725-8.725s3.915-8.725 8.725-8.725c1.422 0 3.272 0.428 4.46 1.227 0.195 0.136 0.312 0.312 0.312 0.545 0 0.214-0.136 0.428-0.312 0.545l-5.707 3.292v4.363l3.759 2.084c0.643-0.37 5.161-3.214 5.551-3.214s0.623 0.292 0.623 0.682z"></path>
</symbol>
<symbol id="icon-github" viewBox="0 0 32 32">
<path d="M16 0.393c8.833 0 16 7.167 16 16 0 7.062-4.583 13.062-10.937 15.187-0.813 0.146-1.104-0.354-1.104-0.771 0-0.521 0.021-2.25 0.021-4.396 0-1.5-0.5-2.458-1.083-2.958 3.563-0.396 7.312-1.75 7.312-7.896 0-1.75-0.625-3.167-1.646-4.292 0.167-0.417 0.708-2.042-0.167-4.25-1.333-0.417-4.396 1.646-4.396 1.646-1.271-0.354-2.646-0.542-4-0.542s-2.729 0.188-4 0.542c0 0-3.063-2.062-4.396-1.646-0.875 2.208-0.333 3.833-0.167 4.25-1.021 1.125-1.646 2.542-1.646 4.292 0 6.125 3.729 7.5 7.292 7.896-0.458 0.417-0.875 1.125-1.021 2.146-0.917 0.417-3.25 1.125-4.646-1.333-0.875-1.521-2.458-1.646-2.458-1.646-1.563-0.021-0.104 0.979-0.104 0.979 1.042 0.479 1.771 2.333 1.771 2.333 0.938 2.854 5.396 1.896 5.396 1.896 0 1.333 0.021 2.583 0.021 2.979 0 0.417-0.292 0.917-1.104 0.771-6.354-2.125-10.937-8.125-10.937-15.187 0-8.833 7.167-16 16-16zM6.063 23.372c0.042-0.083-0.021-0.188-0.146-0.25-0.125-0.042-0.229-0.021-0.271 0.042-0.042 0.083 0.021 0.188 0.146 0.25 0.104 0.063 0.229 0.042 0.271-0.042zM6.708 24.081c0.083-0.063 0.063-0.208-0.042-0.333-0.104-0.104-0.25-0.146-0.333-0.063-0.083 0.063-0.063 0.208 0.042 0.333 0.104 0.104 0.25 0.146 0.333 0.063zM7.333 25.018c0.104-0.083 0.104-0.25 0-0.396-0.083-0.146-0.25-0.208-0.354-0.125-0.104 0.063-0.104 0.229 0 0.375s0.271 0.208 0.354 0.146zM8.208 25.893c0.083-0.083 0.042-0.271-0.083-0.396-0.146-0.146-0.333-0.167-0.417-0.063-0.104 0.083-0.063 0.271 0.083 0.396 0.146 0.146 0.333 0.167 0.417 0.063zM9.396 26.414c0.042-0.125-0.083-0.271-0.271-0.333-0.167-0.042-0.354 0.021-0.396 0.146s0.083 0.271 0.271 0.312c0.167 0.063 0.354 0 0.396-0.125zM10.708 26.518c0-0.146-0.167-0.25-0.354-0.229-0.188 0-0.333 0.104-0.333 0.229 0 0.146 0.146 0.25 0.354 0.229 0.188 0 0.333-0.104 0.333-0.229zM11.917 26.31c-0.021-0.125-0.188-0.208-0.375-0.188-0.188 0.042-0.312 0.167-0.292 0.312 0.021 0.125 0.188 0.208 0.375 0.167s0.312-0.167 0.292-0.292z"></path>
</symbol>
<symbol id="icon-instagram" viewBox="0 0 32 32">
<path d="M21.333 16c0-2.937-2.396-5.333-5.333-5.333s-5.333 2.396-5.333 5.333 2.396 5.333 5.333 5.333 5.333-2.396 5.333-5.333zM24.208 16c0 4.541-3.666 8.208-8.208 8.208s-8.208-3.666-8.208-8.208 3.666-8.208 8.208-8.208 8.208 3.666 8.208 8.208zM26.457 7.459c0 1.062-0.854 1.917-1.916 1.917s-1.916-0.854-1.916-1.917 0.854-1.917 1.916-1.917 1.916 0.854 1.916 1.917zM16 2.876c-2.333 0-7.333-0.188-9.437 0.646-0.729 0.292-1.271 0.646-1.833 1.208s-0.917 1.104-1.208 1.833c-0.833 2.104-0.646 7.104-0.646 9.437s-0.188 7.333 0.646 9.437c0.292 0.729 0.646 1.271 1.208 1.833s1.104 0.917 1.833 1.208c2.104 0.833 7.104 0.646 9.437 0.646s7.333 0.188 9.437-0.646c0.729-0.292 1.271-0.646 1.833-1.208s0.917-1.104 1.208-1.833c0.833-2.104 0.646-7.104 0.646-9.437s0.188-7.333-0.646-9.437c-0.292-0.729-0.646-1.271-1.208-1.833s-1.104-0.917-1.833-1.208c-2.104-0.833-7.104-0.646-9.437-0.646zM31.999 16c0 2.208 0.021 4.395-0.104 6.604-0.125 2.562-0.708 4.833-2.583 6.708s-4.146 2.458-6.708 2.583c-2.208 0.125-4.395 0.104-6.604 0.104s-4.395 0.021-6.604-0.104c-2.562-0.125-4.833-0.708-6.708-2.583s-2.458-4.146-2.583-6.708c-0.125-2.208-0.104-4.395-0.104-6.604s-0.021-4.395 0.104-6.604c0.125-2.562 0.708-4.833 2.583-6.708s4.146-2.458 6.708-2.583c2.208-0.125 4.395-0.104 6.604-0.104s4.395-0.021 6.604 0.104c2.562 0.125 4.833 0.708 6.708 2.583s2.458 4.146 2.583 6.708c0.125 2.208 0.104 4.395 0.104 6.604z"></path>
</symbol>
<symbol id="icon-email" viewBox="0 0 32 32">
<path d="M31.502 0.196c0.375 0.268 0.554 0.696 0.482 1.143l-4.571 27.429c-0.054 0.339-0.268 0.625-0.571 0.804-0.161 0.089-0.357 0.143-0.554 0.143-0.143 0-0.286-0.036-0.429-0.089l-8.089-3.304-4.321 5.268c-0.214 0.268-0.536 0.411-0.875 0.411-0.125 0-0.268-0.018-0.393-0.071-0.446-0.161-0.75-0.589-0.75-1.071v-6.232l15.429-18.911-19.089 16.518-7.054-2.893c-0.411-0.161-0.679-0.536-0.714-0.982-0.018-0.429 0.196-0.839 0.571-1.054l29.714-17.143c0.179-0.107 0.375-0.161 0.571-0.161 0.232 0 0.464 0.071 0.643 0.196z"></path>
</symbol>
<symbol id="icon-twitter" viewBox="0 0 32 32">
<path d="M32 6.091c-0.893 1.299-2.010 2.457-3.289 3.391 0.020 0.284 0.020 0.569 0.020 0.853 0 8.67-6.599 18.66-18.66 18.66-3.716 0-7.168-1.076-10.071-2.944 0.528 0.061 1.036 0.081 1.584 0.081 3.066 0 5.888-1.036 8.142-2.802-2.883-0.061-5.3-1.949-6.132-4.548 0.406 0.061 0.812 0.102 1.239 0.102 0.589 0 1.178-0.081 1.726-0.223-3.005-0.609-5.259-3.249-5.259-6.437v-0.081c0.873 0.487 1.888 0.792 2.964 0.832-1.766-1.178-2.924-3.188-2.924-5.462 0-1.218 0.325-2.335 0.893-3.31 3.228 3.98 8.081 6.579 13.523 6.863-0.102-0.487-0.162-0.995-0.162-1.503 0-3.614 2.924-6.558 6.558-6.558 1.888 0 3.594 0.792 4.792 2.071 1.482-0.284 2.904-0.832 4.162-1.584-0.487 1.523-1.523 2.802-2.883 3.614 1.32-0.142 2.599-0.508 3.777-1.015z"></path>
</symbol>
<symbol id="icon-chevron-down" viewBox="0 0 32 32">
<path d="M31.628 11.185l-14.734 14.714c-0.496 0.496-1.291 0.496-1.787 0l-14.734-14.714c-0.496-0.496-0.496-1.311 0-1.807l3.296-3.276c0.496-0.496 1.291-0.496 1.787 0l10.544 10.544 10.544-10.544c0.496-0.496 1.291-0.496 1.787 0l3.296 3.276c0.496 0.496 0.496 1.311 0 1.807z"></path>
</symbol>
<symbol id="icon-link" viewBox="0 0 32 32">
<path d="M25.143 18.857v5.714c0 2.839-2.304 5.143-5.143 5.143h-14.857c-2.839 0-5.143-2.304-5.143-5.143v-14.857c0-2.839 2.304-5.143 5.143-5.143h12.571c0.321 0 0.571 0.25 0.571 0.571v1.143c0 0.321-0.25 0.571-0.571 0.571h-12.571c-1.571 0-2.857 1.286-2.857 2.857v14.857c0 1.571 1.286 2.857 2.857 2.857h14.857c1.571 0 2.857-1.286 2.857-2.857v-5.714c0-0.321 0.25-0.571 0.571-0.571h1.143c0.321 0 0.571 0.25 0.571 0.571zM32 3.429v9.143c0 0.625-0.518 1.143-1.143 1.143-0.304 0-0.589-0.125-0.804-0.339l-3.143-3.143-11.643 11.643c-0.107 0.107-0.268 0.179-0.411 0.179s-0.304-0.071-0.411-0.179l-2.036-2.036c-0.107-0.107-0.179-0.268-0.179-0.411s0.071-0.304 0.179-0.411l11.643-11.643-3.143-3.143c-0.214-0.214-0.339-0.5-0.339-0.804 0-0.625 0.518-1.143 1.143-1.143h9.143c0.625 0 1.143 0.518 1.143 1.143z"></path>
</symbol>
<symbol id="icon-linkedin" viewBox="0 0 32 32">
<path d="M7.271 10.646v20.646h-6.875v-20.646h6.875zM7.708 4.271c0.021 1.979-1.479 3.563-3.875 3.563v0h-0.042c-2.313 0-3.792-1.583-3.792-3.563 0-2.021 1.542-3.563 3.875-3.563 2.354 0 3.813 1.542 3.833 3.563zM32 19.458v11.833h-6.854v-11.042c0-2.771-1-4.667-3.479-4.667-1.896 0-3.021 1.271-3.521 2.5-0.167 0.458-0.229 1.063-0.229 1.688v11.521h-6.854c0.083-18.708 0-20.646 0-20.646h6.854v3h-0.042c0.896-1.417 2.521-3.479 6.229-3.479 4.521 0 7.896 2.958 7.896 9.292z"></path>
</symbol>
</defs>
</svg>
